<?xml version="1.0" encoding="UTF-8"?>
<svg xmlns="http://www.w3.org/2000/svg" xmlns:xlink="http://www.w3.org/1999/xlink" width="800pt" height="581pt" viewBox="0 0 800 581" version="1.1">
<g id="surface4">
<path style="fill:none;stroke-width:1;stroke-linecap:square;stroke-linejoin:miter;stroke:rgb(0%,0%,0%);stroke-opacity:0.7;stroke-miterlimit:3.25;" d="M 91.574219 398.648438 L 247.265625 358.671875 "/>
<path style="fill:none;stroke-width:1;stroke-linecap:square;stroke-linejoin:miter;stroke:rgb(0%,0%,0%);stroke-opacity:0.7;stroke-miterlimit:3.25;" d="M 84.800781 384.765625 L 254.039063 254.402344 "/>
<path style="fill:none;stroke-width:1;stroke-linecap:square;stroke-linejoin:miter;stroke:rgb(0%,0%,0%);stroke-opacity:0.7;stroke-miterlimit:3.25;" d="M 91.574219 299.59375 L 247.265625 339.570313 "/>
<path style="fill:none;stroke-width:1;stroke-linecap:square;stroke-linejoin:miter;stroke:rgb(0%,0%,0%);stroke-opacity:0.7;stroke-miterlimit:3.25;" d="M 91.574219 280.496094 L 247.265625 240.519531 "/>
<path style="fill:none;stroke-width:1;stroke-linecap:square;stroke-linejoin:miter;stroke:rgb(0%,0%,0%);stroke-opacity:0.7;stroke-miterlimit:3.25;" d="M 84.800781 195.324219 L 254.039063 325.6875 "/>
<path style="fill:none;stroke-width:1;stroke-linecap:square;stroke-linejoin:miter;stroke:rgb(0%,0%,0%);stroke-opacity:0.7;stroke-miterlimit:3.25;" d="M 91.574219 181.441406 L 247.265625 221.417969 "/>
<path style="fill:none;stroke-width:1;stroke-linecap:square;stroke-linejoin:miter;stroke:rgb(0%,0%,0%);stroke-opacity:0.7;stroke-miterlimit:3.25;" d="M 314.878906 372.554688 L 484.121094 502.917969 "/>
<path style="fill:none;stroke-width:1;stroke-linecap:square;stroke-linejoin:miter;stroke:rgb(0%,0%,0%);stroke-opacity:0.7;stroke-miterlimit:3.25;" d="M 321.652344 358.671875 L 477.347656 398.648438 "/>
<path style="fill:none;stroke-width:1;stroke-linecap:square;stroke-linejoin:miter;stroke:rgb(0%,0%,0%);stroke-opacity:0.7;stroke-miterlimit:3.25;" d="M 321.652344 339.570313 L 477.347656 299.59375 "/>
<path style="fill:none;stroke-width:1;stroke-linecap:square;stroke-linejoin:miter;stroke:rgb(0%,0%,0%);stroke-opacity:0.7;stroke-miterlimit:3.25;" d="M 314.878906 325.6875 L 484.121094 195.324219 "/>
<path style="fill:none;stroke-width:1;stroke-linecap:square;stroke-linejoin:miter;stroke:rgb(0%,0%,0%);stroke-opacity:0.7;stroke-miterlimit:3.25;" d="M 308.054688 318.828125 L 490.945313 84.035156 "/>
<path style="fill:none;stroke-width:1;stroke-linecap:square;stroke-linejoin:miter;stroke:rgb(0%,0%,0%);stroke-opacity:0.7;stroke-miterlimit:3.25;" d="M 308.054688 261.261719 L 490.945313 496.054688 "/>
<path style="fill:none;stroke-width:1;stroke-linecap:square;stroke-linejoin:miter;stroke:rgb(0%,0%,0%);stroke-opacity:0.7;stroke-miterlimit:3.25;" d="M 314.878906 254.402344 L 484.121094 384.765625 "/>
<path style="fill:none;stroke-width:1;stroke-linecap:square;stroke-linejoin:miter;stroke:rgb(0%,0%,0%);stroke-opacity:0.7;stroke-miterlimit:3.25;" d="M 321.652344 240.519531 L 477.347656 280.496094 "/>
<path style="fill:none;stroke-width:1;stroke-linecap:square;stroke-linejoin:miter;stroke:rgb(0%,0%,0%);stroke-opacity:0.7;stroke-miterlimit:3.25;" d="M 321.652344 221.417969 L 477.347656 181.441406 "/>
<path style="fill:none;stroke-width:1;stroke-linecap:square;stroke-linejoin:miter;stroke:rgb(0%,0%,0%);stroke-opacity:0.7;stroke-miterlimit:3.25;" d="M 314.878906 207.535156 L 484.121094 77.171875 "/>
<path style="fill:none;stroke-width:1;stroke-linecap:square;stroke-linejoin:miter;stroke:rgb(0%,0%,0%);stroke-opacity:0.7;stroke-miterlimit:3.25;" d="M 541.328125 498.835938 L 717.832031 317.558594 "/>
<path style="fill:none;stroke-width:1;stroke-linecap:square;stroke-linejoin:miter;stroke:rgb(0%,0%,0%);stroke-opacity:0.7;stroke-miterlimit:3.25;" d="M 548.699219 390.65625 L 710.460938 307.585938 "/>
<path style="fill:none;stroke-width:1;stroke-linecap:square;stroke-linejoin:miter;stroke:rgb(0%,0%,0%);stroke-opacity:0.7;stroke-miterlimit:3.25;" d="M 552.941406 290.042969 L 706.222656 290.042969 "/>
<path style="fill:none;stroke-width:1;stroke-linecap:square;stroke-linejoin:miter;stroke:rgb(0%,0%,0%);stroke-opacity:0.7;stroke-miterlimit:3.25;" d="M 548.699219 189.433594 L 710.460938 272.503906 "/>
<path style="fill:none;stroke-width:1;stroke-linecap:square;stroke-linejoin:miter;stroke:rgb(0%,0%,0%);stroke-opacity:0.7;stroke-miterlimit:3.25;" d="M 541.328125 81.253906 L 717.832031 262.53125 "/>
<path style=" stroke:none;fill-rule:evenodd;fill:rgb(36.84082%,50.67749%,70.979309%);fill-opacity:1;" d="M 92.398438 408 C 92.398438 397.816406 88.355469 388.046875 81.152344 380.847656 C 73.953125 373.644531 64.183594 369.601563 54 369.601563 C 43.816406 369.601563 34.046875 373.644531 26.847656 380.847656 C 19.644531 388.046875 15.601563 397.816406 15.601563 408 C 15.601563 418.183594 19.644531 427.953125 26.847656 435.152344 C 34.046875 442.355469 43.816406 446.398438 54 446.398438 C 64.183594 446.398438 73.953125 442.355469 81.152344 435.152344 C 88.355469 427.953125 92.398438 418.183594 92.398438 408 Z M 92.398438 408 "/>
<path style=" stroke:none;fill-rule:evenodd;fill:rgb(36.84082%,50.67749%,70.979309%);fill-opacity:1;" d="M 92.398438 290 C 92.398438 279.816406 88.355469 270.046875 81.152344 262.847656 C 73.953125 255.644531 64.183594 251.601563 54 251.601563 C 43.816406 251.601563 34.046875 255.644531 26.847656 262.847656 C 19.644531 270.046875 15.601563 279.816406 15.601563 290 C 15.601563 300.183594 19.644531 309.953125 26.847656 317.152344 C 34.046875 324.355469 43.816406 328.398438 54 328.398438 C 64.183594 328.398438 73.953125 324.355469 81.152344 317.152344 C 88.355469 309.953125 92.398438 300.183594 92.398438 290 Z M 92.398438 290 "/>
<path style=" stroke:none;fill-rule:evenodd;fill:rgb(36.84082%,50.67749%,70.979309%);fill-opacity:1;" d="M 92.398438 172 C 92.398438 161.816406 88.355469 152.046875 81.152344 144.847656 C 73.953125 137.644531 64.183594 133.601563 54 133.601563 C 43.816406 133.601563 34.046875 137.644531 26.847656 144.847656 C 19.644531 152.046875 15.601563 161.816406 15.601563 172 C 15.601563 182.183594 19.644531 191.953125 26.847656 199.152344 C 34.046875 206.355469 43.816406 210.398438 54 210.398438 C 64.183594 210.398438 73.953125 206.355469 81.152344 199.152344 C 88.355469 191.953125 92.398438 182.183594 92.398438 172 Z M 92.398438 172 "/>
<path style=" stroke:none;fill-rule:evenodd;fill:rgb(88.070679%,61.103821%,14.204407%);fill-opacity:1;" d="M 322.398438 349 C 322.398438 338.816406 318.355469 329.046875 311.152344 321.847656 C 303.953125 314.644531 294.183594 310.601563 284 310.601563 C 273.816406 310.601563 264.046875 314.644531 256.847656 321.847656 C 249.644531 329.046875 245.601563 338.816406 245.601563 349 C 245.601563 359.183594 249.644531 368.953125 256.847656 376.152344 C 264.046875 383.355469 273.816406 387.398438 284 387.398438 C 294.183594 387.398438 303.953125 383.355469 311.152344 376.152344 C 318.355469 368.953125 322.398438 359.183594 322.398438 349 Z M 322.398438 349 "/>
<path style=" stroke:none;fill-rule:evenodd;fill:rgb(88.070679%,61.103821%,14.204407%);fill-opacity:1;" d="M 322.398438 231 C 322.398438 220.816406 318.355469 211.046875 311.152344 203.847656 C 303.953125 196.644531 294.183594 192.601563 284 192.601563 C 273.816406 192.601563 264.046875 196.644531 256.847656 203.847656 C 249.644531 211.046875 245.601563 220.816406 245.601563 231 C 245.601563 241.183594 249.644531 250.953125 256.847656 258.152344 C 264.046875 265.355469 273.816406 269.398438 284 269.398438 C 294.183594 269.398438 303.953125 265.355469 311.152344 258.152344 C 318.355469 250.953125 322.398438 241.183594 322.398438 231 Z M 322.398438 231 "/>
<path style=" stroke:none;fill-rule:evenodd;fill:rgb(56.016541%,69.155884%,19.488525%);fill-opacity:1;" d="M 553.398438 526 C 553.398438 515.816406 549.355469 506.046875 542.152344 498.847656 C 534.953125 491.644531 525.183594 487.601563 515 487.601563 C 504.816406 487.601563 495.046875 491.644531 487.847656 498.847656 C 480.644531 506.046875 476.601563 515.816406 476.601563 526 C 476.601563 536.183594 480.644531 545.953125 487.847656 553.152344 C 495.046875 560.355469 504.816406 564.398438 515 564.398438 C 525.183594 564.398438 534.953125 560.355469 542.152344 553.152344 C 549.355469 545.953125 553.398438 536.183594 553.398438 526 Z M 553.398438 526 "/>
<path style=" stroke:none;fill-rule:evenodd;fill:rgb(56.016541%,69.155884%,19.488525%);fill-opacity:1;" d="M 553.398438 408 C 553.398438 397.816406 549.355469 388.046875 542.152344 380.847656 C 534.953125 373.644531 525.183594 369.601563 515 369.601563 C 504.816406 369.601563 495.046875 373.644531 487.847656 380.847656 C 480.644531 388.046875 476.601563 397.816406 476.601563 408 C 476.601563 418.183594 480.644531 427.953125 487.847656 435.152344 C 495.046875 442.355469 504.816406 446.398438 515 446.398438 C 525.183594 446.398438 534.953125 442.355469 542.152344 435.152344 C 549.355469 427.953125 553.398438 418.183594 553.398438 408 Z M 553.398438 408 "/>
<path style=" stroke:none;fill-rule:evenodd;fill:rgb(56.016541%,69.155884%,19.488525%);fill-opacity:1;" d="M 553.398438 290 C 553.398438 279.816406 549.355469 270.046875 542.152344 262.847656 C 534.953125 255.644531 525.183594 251.601563 515 251.601563 C 504.816406 251.601563 495.046875 255.644531 487.847656 262.847656 C 480.644531 270.046875 476.601563 279.816406 476.601563 290 C 476.601563 300.183594 480.644531 309.953125 487.847656 317.152344 C 495.046875 324.355469 504.816406 328.398438 515 328.398438 C 525.183594 328.398438 534.953125 324.355469 542.152344 317.152344 C 549.355469 309.953125 553.398438 300.183594 553.398438 290 Z M 553.398438 290 "/>
<path style=" stroke:none;fill-rule:evenodd;fill:rgb(56.016541%,69.155884%,19.488525%);fill-opacity:1;" d="M 553.398438 172 C 553.398438 161.816406 549.355469 152.046875 542.152344 144.847656 C 534.953125 137.644531 525.183594 133.601563 515 133.601563 C 504.816406 133.601563 495.046875 137.644531 487.847656 144.847656 C 480.644531 152.046875 476.601563 161.816406 476.601563 172 C 476.601563 182.183594 480.644531 191.953125 487.847656 199.152344 C 495.046875 206.355469 504.816406 210.398438 515 210.398438 C 525.183594 210.398438 534.953125 206.355469 542.152344 199.152344 C 549.355469 191.953125 553.398438 182.183594 553.398438 172 Z M 553.398438 172 "/>
<path style=" stroke:none;fill-rule:evenodd;fill:rgb(56.016541%,69.155884%,19.488525%);fill-opacity:1;" d="M 553.398438 54 C 553.398438 43.816406 549.355469 34.046875 542.152344 26.847656 C 534.953125 19.644531 525.183594 15.601563 515 15.601563 C 504.816406 15.601563 495.046875 19.644531 487.847656 26.847656 C 480.644531 34.046875 476.601563 43.816406 476.601563 54 C 476.601563 64.183594 480.644531 73.953125 487.847656 81.152344 C 495.046875 88.355469 504.816406 92.398438 515 92.398438 C 525.183594 92.398438 534.953125 88.355469 542.152344 81.152344 C 549.355469 73.953125 553.398438 64.183594 553.398438 54 Z M 553.398438 54 "/>
<path style=" stroke:none;fill-rule:evenodd;fill:rgb(92.251587%,38.562012%,20.918274%);fill-opacity:1;" d="M 783.398438 290 C 783.398438 279.816406 779.355469 270.046875 772.152344 262.847656 C 764.953125 255.644531 755.183594 251.601563 745 251.601563 C 734.816406 251.601563 725.046875 255.644531 717.847656 262.847656 C 710.644531 270.046875 706.601563 279.816406 706.601563 290 C 706.601563 300.183594 710.644531 309.953125 717.847656 317.152344 C 725.046875 324.355469 734.816406 328.398438 745 328.398438 C 755.183594 328.398438 764.953125 324.355469 772.152344 317.152344 C 779.355469 309.953125 783.398438 300.183594 783.398438 290 Z M 783.398438 290 "/>
</g>
</svg>
